<svg width="25" height="25" viewBox="0 0 25 25" fill="none" xmlns="http://www.w3.org/2000/svg">
<path d="M10.9817 0.0304241C7.18473 0.424364 3.8576 2.48899 1.8357 5.70695C-1.03104 10.2634 -0.494716 16.2864 3.12668 20.2542C5.13435 22.4518 7.64037 23.7665 10.6495 24.1936C11.2096 24.2743 13.0748 24.2696 13.6634 24.1936C16.4115 23.8139 18.87 22.5941 20.74 20.6861C21.3571 20.0596 21.4852 19.9125 21.8934 19.3714C23.1084 17.753 23.9011 15.7785 24.2096 13.6237C24.2902 13.0637 24.2902 11.1936 24.2096 10.6336C24.0055 9.19545 23.6305 7.97092 23.0372 6.77011C22.4012 5.49812 21.7557 4.59158 20.7448 3.57113C18.87 1.67263 16.5254 0.49081 13.8295 0.0921249C13.2457 0.00669289 11.5608 -0.0312786 10.9817 0.0304241ZM15.0066 5.1991C16.3735 5.28928 17.1709 5.58829 17.9018 6.28125C18.6422 6.98844 18.9839 7.85701 19.0741 9.26664C19.1358 10.1922 19.1358 14.0414 19.0741 14.9811C18.9839 16.405 18.6327 17.2831 17.8733 17.9998C17.1661 18.669 16.3498 18.9727 15.0066 19.0582C14.0953 19.1151 10.1939 19.1151 9.28258 19.0582C7.91565 18.968 7.11828 18.669 6.38736 17.976C5.64694 17.2688 5.30521 16.4003 5.21503 14.9906C5.15333 14.0699 5.15808 10.1115 5.21503 9.23817C5.30996 7.84751 5.65169 6.98369 6.38736 6.28125C7.08981 5.61677 7.92989 5.28453 9.14968 5.20385C9.9518 5.14689 14.1855 5.14689 15.0066 5.1991Z" fill="white"/>
<path d="M10.4122 6.43787C8.9883 6.46635 8.75573 6.48059 8.43773 6.56602C7.42678 6.8413 6.85248 7.41085 6.58194 8.42181C6.49651 8.73981 6.48227 8.97712 6.45379 10.458C6.43956 11.374 6.43956 12.8833 6.45379 13.8041C6.48227 15.2802 6.49651 15.5175 6.58194 15.8355C6.85248 16.8464 7.42678 17.4207 8.43773 17.6913C8.75573 17.7767 8.99304 17.7909 10.4739 17.8194C11.3899 17.8336 12.8992 17.8336 13.82 17.8194C15.3056 17.7909 15.5334 17.7767 15.8609 17.6865C16.8434 17.4255 17.4414 16.8322 17.7072 15.845C17.7926 15.5127 17.8068 15.2944 17.8353 13.7993C17.8496 12.8833 17.8496 11.374 17.8353 10.4532C17.8068 8.97237 17.7926 8.73981 17.7072 8.42181C17.4366 7.41085 16.8576 6.83181 15.8514 6.56602C15.4812 6.47109 15.3863 6.46635 12.7141 6.41888C12.3344 6.41414 11.2997 6.42363 10.4122 6.43787ZM16.1646 7.62443C16.345 7.69088 16.5586 7.89497 16.6345 8.08008C16.8671 8.6164 16.4542 9.23342 15.8704 9.23342C15.4242 9.23342 15.0398 8.85372 15.0398 8.40757C15.0398 7.83327 15.6283 7.42035 16.1646 7.62443ZM13.2979 8.74455C13.8722 8.94389 14.1902 9.14798 14.6411 9.58939C15.0777 10.0213 15.3483 10.4485 15.5476 11.0133C15.671 11.3645 15.6805 11.4452 15.6805 12.1286C15.6805 12.8121 15.671 12.8928 15.5476 13.244C15.3578 13.7898 15.073 14.236 14.6648 14.6489C14.2519 15.0571 13.8058 15.3419 13.2599 15.5317C12.9087 15.6551 12.828 15.6646 12.1446 15.6646C11.4611 15.6646 11.3804 15.6551 11.0292 15.5317C10.4644 15.3324 10.0372 15.0618 9.60531 14.6252C9.16391 14.1743 8.96457 13.8563 8.75573 13.282C8.61334 12.8785 8.6086 12.8358 8.6086 12.1286C8.61334 11.4594 8.62283 11.3597 8.74149 11.0133C8.9883 10.2776 9.51513 9.58464 10.1511 9.16222C10.8441 8.70183 11.3424 8.56419 12.2395 8.58318C12.809 8.59742 12.9229 8.6164 13.2979 8.74455Z" fill="white"/>
<path d="M11.5845 9.87889C10.3363 10.2111 9.57687 11.4641 9.89013 12.6697C10.1179 13.5383 10.735 14.1553 11.6083 14.3831C13.241 14.8103 14.8262 13.225 14.3991 11.5923C14.0668 10.325 12.7996 9.5514 11.5845 9.87889Z" fill="white"/>
</svg>
