<svg width="25" height="25" viewBox="0 0 25 25" fill="none" xmlns="http://www.w3.org/2000/svg">
<path d="M10.9817 0.282827C7.18473 0.677055 3.8576 2.74319 1.8357 5.9635C-1.03104 10.5232 -0.494716 16.5554 3.12668 20.5214C5.13435 22.7205 7.64037 24.0362 10.6495 24.4637C11.2096 24.5444 13.0748 24.5397 13.6634 24.4637C16.4115 24.0837 18.87 22.863 20.74 20.9536C21.3571 20.3267 21.4852 20.1794 21.8934 19.638C23.1084 18.0183 23.9011 16.0424 24.2096 13.886C24.2902 13.3256 24.2902 11.4542 24.2096 10.8937C24.0055 9.45454 23.6305 8.22911 23.0372 7.02744C22.4012 5.75451 21.7557 4.84731 20.7448 3.82612C18.87 1.92623 16.5254 0.743551 13.8295 0.344574C13.2457 0.259079 11.5608 0.221083 10.9817 0.282827ZM15.5856 7.04643C15.9748 7.14618 16.402 7.36942 16.6962 7.6259L16.943 7.83964L17.261 7.75889C17.6455 7.6639 18.215 7.44066 18.4951 7.27442L18.7039 7.15568L18.6707 7.26492C18.5568 7.6449 18.1106 8.25761 17.7594 8.5046C17.6455 8.59009 17.5695 8.66609 17.6028 8.67559C17.6787 8.70409 18.3432 8.54735 18.6944 8.4191C18.8605 8.35736 19.0077 8.31936 19.0172 8.32886C19.0836 8.39061 18.1344 9.40705 17.8211 9.61128C17.7167 9.67778 17.7119 9.72053 17.6835 10.3617C17.6312 11.5729 17.337 12.6606 16.7674 13.7673C16.3592 14.5605 15.9273 15.159 15.3246 15.7622C14.2329 16.8546 12.9277 17.5481 11.3662 17.8663C10.9105 17.9565 10.697 17.9708 9.77144 17.9708C8.84118 17.966 8.63709 17.9518 8.20518 17.8616C7.49798 17.7048 6.93793 17.5101 6.28294 17.1871C5.43336 16.7739 5.43811 16.7834 6.17378 16.7786C7.161 16.7739 7.86819 16.6029 8.73201 16.1612C8.95983 16.0424 9.24461 15.8762 9.36801 15.7859C9.58159 15.6339 9.59108 15.6244 9.48192 15.6054C9.42022 15.5912 9.24461 15.5579 9.09273 15.5342C8.24789 15.3774 7.42204 14.6935 7.10404 13.886L7.0281 13.696H7.53595C8.23365 13.696 8.31434 13.6533 7.89667 13.5061C6.88572 13.1498 6.18802 12.2474 6.04563 11.1122C6.0124 10.8747 6.01715 10.8605 6.09784 10.8937C6.38736 11.0125 6.83351 11.1502 7.0281 11.1739L7.24643 11.1977L6.90945 10.8557C6.19751 10.1385 5.91748 9.17906 6.14055 8.21962C6.19751 7.98688 6.34939 7.5974 6.42058 7.51191C6.42533 7.50241 6.69587 7.76364 7.02336 8.08187C8.08652 9.13631 9.29207 9.81077 10.7444 10.1765C11.0197 10.2477 12.1493 10.4092 12.1683 10.3855C12.1778 10.376 12.1588 10.2335 12.1351 10.0673C12.0829 9.73003 12.1351 9.23606 12.268 8.84183C12.548 8.01063 13.2742 7.32192 14.1617 7.06543C14.5224 6.96094 15.2107 6.95144 15.5856 7.04643Z" fill="white"/>
</svg>
