<svg width="25" height="25" viewBox="0 0 25 25" fill="none" xmlns="http://www.w3.org/2000/svg">
<path d="M10.9925 0.279463C6.87322 0.678104 3.19055 3.17435 1.32548 6.83804C0.665829 8.13362 0.276681 9.38174 0.0631235 10.8861C-0.0317907 11.5505 -0.0175536 13.278 0.0915978 14.0183C0.276681 15.3376 0.665829 16.5857 1.26379 17.7864C2.44547 20.1687 4.33427 22.0575 6.72136 23.244C10.5891 25.1707 15.164 24.905 18.7707 22.5463C20.1802 21.6257 21.5185 20.2589 22.4297 18.8067C22.7809 18.2562 23.3029 17.1837 23.5402 16.5383C23.7822 15.8834 24.0622 14.7539 24.1619 14.0183C24.271 13.2732 24.2852 11.5458 24.1903 10.8861C23.9103 8.91666 23.2839 7.23668 22.2446 5.67059C21.808 5.00619 21.3666 4.46518 20.7497 3.84349C18.8561 1.93097 16.5023 0.744543 13.8115 0.345903C13.2325 0.260481 11.6 0.222515 10.9925 0.279463ZM16.7348 7.90108C17.6223 8.16209 18.2772 8.85971 18.4623 9.74716C18.5619 10.2312 18.5619 14.5308 18.4623 15.0149C18.2772 15.9023 17.6175 16.6 16.7348 16.861C16.507 16.9274 15.9708 16.9369 12.1267 16.9369C8.2827 16.9369 7.74643 16.9274 7.51864 16.861C6.63119 16.6 5.97628 15.9023 5.7912 15.0149C5.69154 14.5308 5.69154 10.2312 5.7912 9.74716C5.97628 8.87869 6.56 8.22853 7.42847 7.9343L7.73694 7.82989L12.1077 7.82515C15.9708 7.82515 16.507 7.83464 16.7348 7.90108Z" fill="white"/>
<path d="M10.4182 12.3763C10.4182 13.4488 10.4277 14.3268 10.4419 14.3268C10.4894 14.3268 13.7877 12.4047 13.7877 12.381C13.7829 12.3573 10.5558 10.4732 10.4657 10.4448C10.4325 10.4353 10.4182 11.1186 10.4182 12.3763Z" fill="white"/>
</svg>
